<svg xmlns="http://www.w3.org/2000/svg" width="693" height="693" version="1.1">
    <g transform="
      translate(
        362.7121946296323,
        319.8622109501468
      )
      scale(0.48699888470759745)
      ">
        <path d="M7.654042494670958e-15,-125A125,125,0,1,1,-7.654042494670958e-15,125A125,125,0,1,1,7.654042494670958e-15,-125Z" style="fill:none;stroke:rgb(253, 246, 227)"/>
        <path d="M1.5308084989341916e-14,-250A250,250,0,0,1,31.333308391076066,-248.02867532861947L15.666654195538033,-124.01433766430974A125,125,0,0,0,7.654042494670958e-15,-125Z" style="fill:rgb(53, 52, 97);stroke:rgb(253, 246, 227)"/>
        <path d="M31.333308391076066,-248.02867532861947A250,250,0,0,1,62.17247179121369,-242.14579028215778L31.086235895606844,-121.07289514107889A125,125,0,0,0,15.666654195538033,-124.01433766430974Z" style="fill:rgb(53, 52, 97);stroke:rgb(253, 246, 227)"/>
        <path d="M62.17247179121369,-242.14579028215778A250,250,0,0,1,92.03113817116952,-232.44412147206285L46.01556908558476,-116.22206073603142A125,125,0,0,0,31.086235895606844,-121.07289514107889Z" style="fill:rgb(53, 52, 97);stroke:rgb(253, 246, 227)"/>
        <path d="M46.01556908558476,-116.22206073603142A125,125,0,1,1,-2.2962127484012872e-14,-125L-2.0665914735611585e-14,-112.5A112.5,112.5,0,1,0,41.41401217702629,-104.59985466242827Z" style="fill:rgb(53, 52, 97);stroke:rgb(253, 246, 227)"/>
        <path d="M92.03113817116952,-232.44412147206285A250,250,0,1,1,-4.5924254968025744e-14,-250L-2.2962127484012872e-14,-125A125,125,0,1,0,46.01556908558476,-116.22206073603142Z" style="fill:rgb(0, 186, 173);stroke:rgb(253, 246, 227)"/>
        <path d="M138.04670725675427,-348.66618220809426A375,375,0,0,1,180.65762778814326,-328.61500501644883L120.43841852542884,-219.0766700109659A250,250,0,0,0,92.03113817116952,-232.44412147206285Z" style="fill:rgb(234, 89, 51);stroke:rgb(253, 246, 227)"/>
        <path d="M180.65762778814326,-328.61500501644883A375,375,0,0,1,256.7051647232583,-273.36323528302927L171.1367764821722,-182.24215685535287A250,250,0,0,0,120.43841852542884,-219.0766700109659Z" style="fill:rgb(234, 89, 51);stroke:rgb(253, 246, 227)"/>
        <path d="M256.7051647232583,-273.36323528302927A375,375,0,0,1,316.6229720632557,-200.9350481171237L211.0819813755038,-133.95669874474913A250,250,0,0,0,171.1367764821722,-182.24215685535287Z" style="fill:rgb(234, 89, 51);stroke:rgb(253, 246, 227)"/>
        <path d="M316.6229720632557,-200.9350481171237A375,375,0,0,1,339.31014467475734,-159.66723433690223L226.2067631165049,-106.44482289126815A250,250,0,0,0,211.0819813755038,-133.95669874474913Z" style="fill:rgb(234, 89, 51);stroke:rgb(253, 246, 227)"/>
        <path d="M339.31014467475734,-159.66723433690223A375,375,0,0,1,356.6461936106826,-115.88137289060528L237.76412907378838,-77.25424859373685A250,250,0,0,0,226.2067631165049,-106.44482289126815Z" style="fill:rgb(42, 123, 155);stroke:rgb(253, 246, 227)"/>
        <path d="M356.6461936106826,-115.88137289060528A375,375,0,0,1,368.35771902325826,-70.26799296964674L245.57181268217218,-46.84532864643116A250,250,0,0,0,237.76412907378838,-77.25424859373685Z" style="fill:rgb(42, 123, 155);stroke:rgb(253, 246, 227)"/>
        <path d="M368.35771902325826,-70.26799296964674A375,375,0,0,1,374.26002316060186,-23.546444823492546L249.5066821070679,-15.697629882328364A250,250,0,0,0,245.57181268217218,-46.84532864643116Z" style="fill:rgb(42, 123, 155);stroke:rgb(253, 246, 227)"/>
        <path d="M374.26002316060186,-23.546444823492546A375,375,0,0,1,374.26002316060186,23.546444823492465L249.5066821070679,15.69762988232831A250,250,0,0,0,249.5066821070679,-15.697629882328364Z" style="fill:rgb(42, 123, 155);stroke:rgb(253, 246, 227)"/>
        <path d="M374.26002316060186,23.546444823492465A375,375,0,0,1,368.35771902325826,70.26799296964667L245.57181268217218,46.84532864643111A250,250,0,0,0,249.5066821070679,15.69762988232831Z" style="fill:rgb(42, 123, 155);stroke:rgb(253, 246, 227)"/>
        <path d="M368.35771902325826,70.26799296964667A375,375,0,0,1,356.64619361068264,115.88137289060519L237.7641290737884,77.25424859373679A250,250,0,0,0,245.57181268217218,46.84532864643111Z" style="fill:rgb(0, 186, 173);stroke:rgb(253, 246, 227)"/>
        <path d="M356.64619361068264,115.88137289060519A375,375,0,0,1,316.6229720632557,200.9350481171237L211.0819813755038,133.95669874474913A250,250,0,0,0,237.7641290737884,77.25424859373679Z" style="fill:rgb(0, 186, 173);stroke:rgb(253, 246, 227)"/>
        <path d="M316.6229720632557,200.9350481171237A375,375,0,0,1,-138.04670725675425,348.6661822080943L-92.03113817116949,232.44412147206288A250,250,0,0,0,211.0819813755038,133.95669874474913Z" style="fill:rgb(0, 186, 173);stroke:rgb(253, 246, 227)"/>
        <path d="M-138.04670725675425,348.6661822080943A375,375,0,0,1,-374.26002316060186,-23.546444823492337L-249.5066821070679,-15.697629882328226A250,250,0,0,0,-92.03113817116949,232.44412147206288Z" style="fill:rgb(0, 186, 173);stroke:rgb(253, 246, 227)"/>
        <path d="M-374.26002316060186,-23.546444823492337A375,375,0,0,1,-339.31014467475745,-159.66723433690197L-226.206763116505,-106.44482289126798A250,250,0,0,0,-249.5066821070679,-15.697629882328226Z" style="fill:rgb(0, 186, 173);stroke:rgb(253, 246, 227)"/>
        <path d="M-339.31014467475745,-159.66723433690197A375,375,0,0,1,-93.25870768682074,-363.2186854232366L-62.17247179121382,-242.14579028215775A250,250,0,0,0,-226.206763116505,-106.44482289126798Z" style="fill:rgb(0, 186, 173);stroke:rgb(253, 246, 227)"/>
        <path d="M-93.25870768682074,-363.2186854232366A375,375,0,0,1,-46.999962586614224,-372.04301299292916L-31.333308391076148,-248.02867532861944A250,250,0,0,0,-62.17247179121382,-242.14579028215775Z" style="fill:rgb(87, 199, 133);stroke:rgb(253, 246, 227)"/>
        <path d="M-46.999962586614224,-372.04301299292916A375,375,0,0,1,-6.888638245203861e-14,-375L-4.5924254968025744e-14,-250A250,250,0,0,0,-31.333308391076148,-248.02867532861944Z" style="fill:rgb(237, 141, 19);stroke:rgb(253, 246, 227)"/>
        <path d="M184.06227634233903,-464.8882429441257A500,500,0,0,1,240.8768370508577,-438.1533400219318L180.65762778814326,-328.61500501644883A375,375,0,0,0,138.04670725675427,-348.66618220809426Z" style="fill:rgb(200, 33, 58);stroke:rgb(253, 246, 227)"/>
        <path d="M192.70146964068616,-350.52267201754546A400,400,0,0,1,273.8188423714755,-291.58745096856455L256.7051647232583,-273.36323528302927A375,375,0,0,0,180.65762778814326,-328.61500501644883Z" style="fill:rgb(234, 89, 51);stroke:rgb(253, 246, 227)"/>
        <path d="M273.8188423714755,-291.58745096856455A400,400,0,0,1,337.73117020080605,-214.33071799159862L316.6229720632557,-200.9350481171237A375,375,0,0,0,256.7051647232583,-273.36323528302927Z" style="fill:rgb(234, 89, 51);stroke:rgb(253, 246, 227)"/>
        <path d="M422.1639627510076,-267.91339748949827A500,500,0,0,1,452.4135262330098,-212.8896457825363L339.31014467475734,-159.66723433690223A375,375,0,0,0,316.6229720632557,-200.9350481171237Z" style="fill:rgb(200, 33, 58);stroke:rgb(253, 246, 227)"/>
        <path d="M491.14362536434436,93.69065729286223A500,500,0,0,1,475.5282581475768,154.50849718747358L356.64619361068264,115.88137289060519A375,375,0,0,0,368.35771902325826,70.26799296964667Z" style="fill:rgb(234, 89, 51);stroke:rgb(253, 246, 227)"/>
        <path d="M475.5282581475768,154.50849718747358A500,500,0,0,1,452.41352623300986,212.88964578253618L339.3101446747574,159.66723433690214A375,375,0,0,0,356.64619361068264,115.88137289060519Z" style="fill:rgb(234, 89, 51);stroke:rgb(253, 246, 227)"/>
        <path d="M452.41352623300986,212.88964578253618A500,500,0,0,1,422.1639627510076,267.91339748949827L316.6229720632557,200.9350481171237A375,375,0,0,0,339.3101446747574,159.66723433690214Z" style="fill:rgb(237, 141, 19);stroke:rgb(253, 246, 227)"/>
        <path d="M422.1639627510076,267.91339748949827A500,500,0,0,1,385.2566213878946,318.7119948743449L288.9424660409209,239.03399615575864A375,375,0,0,0,316.6229720632557,200.9350481171237Z" style="fill:rgb(234, 89, 51);stroke:rgb(253, 246, 227)"/>
        <path d="M385.2566213878946,318.7119948743449A500,500,0,0,1,342.2735529643443,364.48431371070586L256.7051647232582,273.36323528302944A375,375,0,0,0,288.9424660409209,239.03399615575864Z" style="fill:rgb(234, 89, 51);stroke:rgb(253, 246, 227)"/>
        <path d="M342.2735529643443,364.48431371070586A500,500,0,0,1,293.8926261462364,404.50849718747384L220.4194696096773,303.3813728906054A375,375,0,0,0,256.7051647232582,273.36323528302944Z" style="fill:rgb(42, 123, 155);stroke:rgb(253, 246, 227)"/>
        <path d="M293.8926261462364,404.50849718747384A500,500,0,0,1,240.87683705085738,438.15334002193197L180.65762778814303,328.61500501644895A375,375,0,0,0,220.4194696096773,303.3813728906054Z" style="fill:rgb(87, 199, 133);stroke:rgb(253, 246, 227)"/>
        <path d="M240.87683705085738,438.15334002193197A500,500,0,0,1,184.06227634233863,464.88824294412586L138.04670725675396,348.66618220809437A375,375,0,0,0,180.65762778814303,328.61500501644895Z" style="fill:rgb(87, 199, 133);stroke:rgb(253, 246, 227)"/>
        <path d="M184.06227634233863,464.88824294412586A500,500,0,0,1,-184.0622763423394,464.8882429441255L-138.04670725675456,348.66618220809414A375,375,0,0,0,138.04670725675396,348.66618220809437Z" style="fill:rgb(237, 141, 19);stroke:rgb(253, 246, 227)"/>
        <path d="M-184.06227634233898,464.88824294412575A500,500,0,0,1,-240.87683705085752,438.15334002193185L-180.65762778814315,328.6150050164489A375,375,0,0,0,-138.04670725675425,348.6661822080943Z" style="fill:rgb(234, 89, 51);stroke:rgb(253, 246, 227)"/>
        <path d="M-240.87683705085752,438.15334002193185A500,500,0,0,1,-293.8926261462365,404.5084971874737L-220.41946960967738,303.3813728906053A375,375,0,0,0,-180.65762778814315,328.6150050164489Z" style="fill:rgb(234, 89, 51);stroke:rgb(253, 246, 227)"/>
        <path d="M-293.8926261462365,404.5084971874737A500,500,0,0,1,-342.2735529643444,364.48431371070575L-256.7051647232583,273.36323528302927A375,375,0,0,0,-220.41946960967738,303.3813728906053Z" style="fill:rgb(234, 89, 51);stroke:rgb(253, 246, 227)"/>
        <path d="M-342.2735529643444,364.48431371070575A500,500,0,0,1,-452.4135262330097,212.88964578253643L-339.3101446747573,159.66723433690234A375,375,0,0,0,-256.7051647232583,273.36323528302927Z" style="fill:rgb(234, 89, 51);stroke:rgb(253, 246, 227)"/>
        <path d="M-452.4135262330097,212.88964578253643A500,500,0,0,1,-475.52825814757676,154.50849718747375L-356.6461936106826,115.88137289060532A375,375,0,0,0,-339.3101446747573,159.66723433690234Z" style="fill:rgb(42, 123, 155);stroke:rgb(253, 246, 227)"/>
        <path d="M-475.52825814757676,154.50849718747375A500,500,0,0,1,-499.0133642141358,31.39525976465657L-374.26002316060186,23.546444823492426A375,375,0,0,0,-356.6461936106826,115.88137289060532Z" style="fill:rgb(243, 193, 0);stroke:rgb(253, 246, 227)"/>
        <path d="M-499.0133642141358,31.39525976465657A500,500,0,0,1,-499.0133642141358,-31.395259764656895L-374.26002316060186,-23.54644482349267A375,375,0,0,0,-374.26002316060186,23.546444823492426Z" style="fill:rgb(237, 141, 19);stroke:rgb(253, 246, 227)"/>
        <path d="M-499.0133642141358,-31.39525976465645A500,500,0,0,1,-491.14362536434436,-93.69065729286216L-368.35771902325826,-70.26799296964663A375,375,0,0,0,-374.26002316060186,-23.546444823492337Z" style="fill:rgb(234, 89, 51);stroke:rgb(253, 246, 227)"/>
        <path d="M-491.14362536434436,-93.69065729286216A500,500,0,0,1,-475.5282581475768,-154.50849718747364L-356.64619361068264,-115.88137289060523A375,375,0,0,0,-368.35771902325826,-70.26799296964663Z" style="fill:rgb(42, 123, 155);stroke:rgb(253, 246, 227)"/>
        <path d="M-475.5282581475768,-154.50849718747364A500,500,0,0,1,-452.41352623300975,-212.88964578253632L-339.3101446747573,-159.66723433690225A375,375,0,0,0,-356.64619361068264,-115.88137289060523Z" style="fill:rgb(87, 199, 133);stroke:rgb(253, 246, 227)"/>
        <path d="M-452.41352623301,-212.88964578253595A500,500,0,0,1,-422.1639627510077,-267.913397489498L-316.62297206325576,-200.9350481171235A375,375,0,0,0,-339.31014467475745,-159.66723433690197Z" style="fill:rgb(42, 123, 155);stroke:rgb(253, 246, 227)"/>
        <path d="M-422.1639627510077,-267.913397489498A500,500,0,0,1,-124.34494358242765,-484.2915805643155L-93.25870768682074,-363.2186854232366A375,375,0,0,0,-316.62297206325576,-200.9350481171235Z" style="fill:rgb(237, 141, 19);stroke:rgb(253, 246, 227)"/>
        <path d="M240.8768370508577,-438.1533400219318A500,500,0,0,1,293.8926261462366,-404.5084971874737L235.11410091698926,-323.60679774997897A400,400,0,0,0,192.70146964068616,-350.52267201754546Z" style="fill:rgb(42, 123, 155);stroke:rgb(253, 246, 227)"/>
        <path d="M293.8926261462366,-404.5084971874737A500,500,0,0,1,342.2735529643444,-364.48431371070575L273.8188423714755,-291.5874509685646A400,400,0,0,0,235.11410091698926,-323.60679774997897Z" style="fill:rgb(42, 123, 155);stroke:rgb(253, 246, 227)"/>
        <path d="M342.2735529643444,-364.48431371070575A500,500,0,0,1,385.25662138789465,-318.71199487434484L308.20529711031577,-254.96959589947585A400,400,0,0,0,273.8188423714755,-291.58745096856455Z" style="fill:rgb(234, 89, 51);stroke:rgb(253, 246, 227)"/>
        <path d="M385.25662138789465,-318.71199487434484A500,500,0,0,1,422.1639627510076,-267.91339748949827L337.73117020080605,-214.33071799159862A400,400,0,0,0,308.20529711031577,-254.96959589947585Z" style="fill:rgb(237, 141, 19);stroke:rgb(253, 246, 227)"/>
        <path d="M613.9295317054305,117.11332161607778A625,625,0,0,1,594.410322684471,193.13562148434198L475.5282581475768,154.50849718747358A500,500,0,0,0,491.14362536434436,93.69065729286223Z" style="fill:rgb(42, 123, 155);stroke:rgb(253, 246, 227)"/>
        <path d="M594.410322684471,193.13562148434198A625,625,0,0,1,565.5169077912623,266.1120572281702L452.41352623300986,212.88964578253618A500,500,0,0,0,475.5282581475768,154.50849718747358Z" style="fill:rgb(200, 33, 58);stroke:rgb(253, 246, 227)"/>
        <path d="M527.7049534387595,334.89174686187283A625,625,0,0,1,481.5707767348682,398.3899935929311L385.2566213878946,318.7119948743449A500,500,0,0,0,422.1639627510076,267.91339748949827Z" style="fill:rgb(200, 33, 58);stroke:rgb(253, 246, 227)"/>
        <path d="M481.5707767348682,398.3899935929311A625,625,0,0,1,427.8419412054303,455.60539213838234L342.2735529643443,364.48431371070586A500,500,0,0,0,385.2566213878946,318.7119948743449Z" style="fill:rgb(200, 33, 58);stroke:rgb(253, 246, 227)"/>
        <path d="M230.07784542792328,581.1103036801572A625,625,0,0,1,155.43117947803367,605.3644757053945L124.34494358242694,484.29158056431567A500,500,0,0,0,184.06227634233863,464.88824294412586Z" style="fill:rgb(234, 89, 51);stroke:rgb(253, 246, 227)"/>
        <path d="M155.43117947803367,605.3644757053945A625,625,0,0,1,78.33327097768947,620.0716883215488L62.66661678215157,496.057350657239A500,500,0,0,0,124.34494358242694,484.29158056431567Z" style="fill:rgb(234, 89, 51);stroke:rgb(253, 246, 227)"/>
        <path d="M78.33327097768947,620.0716883215488A625,625,0,0,1,-7.943970559955127e-13,625L-6.355176447964101e-13,500A500,500,0,0,0,62.66661678215157,496.057350657239Z" style="fill:rgb(42, 123, 155);stroke:rgb(253, 246, 227)"/>
        <path d="M-7.943970559955127e-13,625A625,625,0,0,1,-78.33327097769104,620.0716883215485L-62.666616782152836,496.0573506572388A500,500,0,0,0,-6.355176447964101e-13,500Z" style="fill:rgb(87, 199, 133);stroke:rgb(253, 246, 227)"/>
        <path d="M-78.33327097769104,620.0716883215485A625,625,0,0,1,-155.4311794780352,605.3644757053942L-124.34494358242817,484.2915805643154A500,500,0,0,0,-62.666616782152836,496.0573506572388Z" style="fill:rgb(42, 123, 155);stroke:rgb(253, 246, 227)"/>
        <path d="M-155.4311794780352,605.3644757053942A625,625,0,0,1,-230.07784542792479,581.1103036801568L-184.06227634233983,464.8882429441254A500,500,0,0,0,-124.34494358242817,484.2915805643154Z" style="fill:rgb(87, 199, 133);stroke:rgb(253, 246, 227)"/>
        <path d="M-230.07784542792373,581.1103036801571A625,625,0,0,1,-301.0960463135719,547.6916750274148L-240.87683705085752,438.15334002193185A500,500,0,0,0,-184.06227634233898,464.88824294412575Z" style="fill:rgb(200, 33, 58);stroke:rgb(253, 246, 227)"/>
        <path d="M-301.0960463135719,547.6916750274148A625,625,0,0,1,-367.36578268279567,505.63562148434215L-293.8926261462365,404.5084971874737A500,500,0,0,0,-240.87683705085752,438.15334002193185Z" style="fill:rgb(200, 33, 58);stroke:rgb(253, 246, 227)"/>
        <path d="M-367.36578268279567,505.63562148434215A625,625,0,0,1,-427.84194120543043,455.6053921383822L-342.2735529643444,364.48431371070575A500,500,0,0,0,-293.8926261462365,404.5084971874737Z" style="fill:rgb(200, 33, 58);stroke:rgb(253, 246, 227)"/>
        <path d="M-359.3872306125616,382.70852939624103A525,525,0,0,1,-443.2721608885578,281.30906736397344L-422.16396275100743,267.9133974894985A500,500,0,0,0,-342.2735529643444,364.48431371070575Z" style="fill:rgb(234, 89, 51);stroke:rgb(253, 246, 227)"/>
        <path d="M-527.7049534387593,334.8917468618731A625,625,0,0,1,-565.516907791262,266.11205722817056L-452.4135262330097,212.88964578253643A500,500,0,0,0,-422.16396275100743,267.9133974894985Z" style="fill:rgb(42, 123, 155);stroke:rgb(253, 246, 227)"/>
        <path d="M-594.410322684471,193.13562148434218A625,625,0,0,1,-613.9295317054305,117.11332161607785L-491.14362536434436,93.69065729286228A500,500,0,0,0,-475.52825814757676,154.50849718747375Z" style="fill:rgb(42, 123, 155);stroke:rgb(253, 246, 227)"/>
        <path d="M-613.9295317054305,117.11332161607785A625,625,0,0,1,-623.7667052676697,39.24407470582071L-499.0133642141358,31.39525976465657A500,500,0,0,0,-491.14362536434436,93.69065729286228Z" style="fill:rgb(87, 199, 133);stroke:rgb(253, 246, 227)"/>
        <path d="M-623.7667052676697,-39.244074705820566A625,625,0,0,1,-613.9295317054305,-117.1133216160777L-491.14362536434436,-93.69065729286216A500,500,0,0,0,-499.0133642141358,-31.39525976465645Z" style="fill:rgb(200, 33, 58);stroke:rgb(253, 246, 227)"/>
        <path d="M-527.7049534387596,-334.8917468618725A625,625,0,0,1,-481.5707767348685,-398.3899935929308L-385.25662138789477,-318.71199487434467A500,500,0,0,0,-422.1639627510077,-267.913397489498Z" style="fill:rgb(234, 89, 51);stroke:rgb(253, 246, 227)"/>
        <path d="M-481.5707767348685,-398.3899935929308A625,625,0,0,1,-427.8419412054306,-455.60539213838206L-342.27355296434445,-364.4843137107057A500,500,0,0,0,-385.25662138789477,-318.71199487434467Z" style="fill:rgb(0, 186, 173);stroke:rgb(253, 246, 227)"/>
        <path d="M-427.8419412054306,-455.60539213838206A625,625,0,0,1,-367.3657826827958,-505.6356214843421L-293.89262614623664,-404.50849718747367A500,500,0,0,0,-342.27355296434445,-364.4843137107057Z" style="fill:rgb(87, 199, 133);stroke:rgb(253, 246, 227)"/>
        <path d="M-367.3657826827958,-505.6356214843421A625,625,0,0,1,-301.09604631357206,-547.6916750274147L-240.87683705085763,-438.1533400219318A500,500,0,0,0,-293.89262614623664,-404.50849718747367Z" style="fill:rgb(42, 123, 155);stroke:rgb(253, 246, 227)"/>
        <path d="M-301.09604631357206,-547.6916750274147A625,625,0,0,1,-230.07784542792362,-581.1103036801571L-184.0622763423389,-464.88824294412575A500,500,0,0,0,-240.87683705085763,-438.1533400219318Z" style="fill:rgb(237, 141, 19);stroke:rgb(253, 246, 227)"/>
        <path d="M-230.07784542792362,-581.1103036801571A625,625,0,0,1,-155.431179478034,-605.3644757053945L-124.34494358242722,-484.2915805643156A500,500,0,0,0,-184.0622763423389,-464.88824294412575Z" style="fill:rgb(237, 141, 19);stroke:rgb(253, 246, 227)"/>
        <path d="M427.84194120543043,-455.6053921383822A625,625,0,0,1,481.57077673486833,-398.38999359293103L385.25662138789465,-318.71199487434484A500,500,0,0,0,342.2735529643444,-364.48431371070575Z" style="fill:rgb(200, 33, 58);stroke:rgb(253, 246, 227)"/>
        <path d="M276.0934145135079,697.3323644161887A750,750,0,0,1,186.5174153736404,726.4373708464735L155.43117947803367,605.3644757053945A625,625,0,0,0,230.07784542792328,581.1103036801572Z" style="fill:rgb(237, 141, 19);stroke:rgb(253, 246, 227)"/>
        <path d="M186.5174153736404,726.4373708464735A750,750,0,0,1,93.99992517322737,744.0860259858584L78.33327097768947,620.0716883215488A625,625,0,0,0,155.43117947803367,605.3644757053945Z" style="fill:rgb(200, 33, 58);stroke:rgb(253, 246, 227)"/>
        <path d="M-427.84194120543043,455.6053921383822A625,625,0,0,1,-481.57077673486833,398.389993592931L-404.5194524572894,334.647594618062A525,525,0,0,0,-359.3872306125616,382.70852939624103Z" style="fill:rgb(42, 123, 155);stroke:rgb(253, 246, 227)"/>
        <path d="M-481.57077673486833,398.389993592931A625,625,0,0,1,-527.7049534387593,334.8917468618731L-443.2721608885578,281.30906736397344A525,525,0,0,0,-404.5194524572894,334.647594618062Z" style="fill:rgb(42, 123, 155);stroke:rgb(253, 246, 227)"/>
        <path d="M-633.2459441265115,-401.870096234247A750,750,0,0,1,-577.8849320818422,-478.067992311517L-481.5707767348685,-398.3899935929308A625,625,0,0,0,-527.7049534387596,-334.8917468618725Z" style="fill:rgb(200, 33, 58);stroke:rgb(253, 246, 227)"/>
        <path d="M-577.8849320818422,-478.067992311517A750,750,0,0,1,-513.4103294465167,-546.7264705660585L-427.8419412054306,-455.60539213838206A625,625,0,0,0,-481.5707767348685,-398.3899935929308Z" style="fill:rgb(234, 89, 51);stroke:rgb(253, 246, 227)"/>
        <path d="M-674.1990874288159,-557.7459910301031A875,875,0,0,1,-598.9787176876029,-637.8475489937349L-513.4103294465167,-546.7264705660585A750,750,0,0,0,-577.8849320818422,-478.067992311517Z" style="fill:rgb(87, 199, 133);stroke:rgb(253, 246, 227)"/>
    </g>
</svg>
